<?xml version="1.0" encoding="utf-8"?>
<!-- Generator: Adobe Illustrator 24.0.0, SVG Export Plug-In . SVG Version: 6.00 Build 0)  -->
<svg version="1.1" id="Layer_1" xmlns="http://www.w3.org/2000/svg" xmlns:xlink="http://www.w3.org/1999/xlink" x="0px" y="0px"
	 viewBox="0 0 512 512" style="enable-background:new 0 0 512 512;" xml:space="preserve">
<style type="text/css">
	.st0{fill:url(#SVGID_1_);}
	.st1{fill-rule:evenodd;clip-rule:evenodd;fill:url(#SVGID_2_);}
	.st2{fill-rule:evenodd;clip-rule:evenodd;fill:#E3EEFA;}
</style>
<linearGradient id="SVGID_1_" gradientUnits="userSpaceOnUse" x1="4.4067" y1="299.7882" x2="507.5933" y2="212.2118">
	<stop  offset="0" style="stop-color:#80CBC4"/>
	<stop  offset="1" style="stop-color:#1DAFD9"/>
</linearGradient>
<circle class="st0" cx="256" cy="256" r="255.3"/>
<linearGradient id="SVGID_2_" gradientUnits="userSpaceOnUse" x1="135.4172" y1="496.4995" x2="427.3467" y2="204.57">
	<stop  offset="8.040201e-02" style="stop-color:#002A37"/>
	<stop  offset="1" style="stop-color:#0D7594"/>
</linearGradient>
<path class="st1" d="M256,511.3c71.7,0,136.4-29.5,182.8-77.1l-40.2-33.3l-26.6-60.3v-49.9l24.4-60.3l38.3-18.6l-37.1-26.6
	l-142.7,29L103,324.4l-77.7,41.1C66.3,451.7,154.2,511.3,256,511.3z"/>
<path class="st2" d="M373.4,378c13.9,28,34.5,49.9,57.7,63.8c5.6-5.3,10.9-10.8,16-16.5c-22.7-11.2-43.1-30.7-56.4-56.6
	c-27.7-54.1-13.7-115.5,31.2-137.9c10.6,18,2.1,41.5-15.3,41.5c68.8,44,120.9-120-58-124.2c-103.7-2.5-174.1,70.7-219.7,124.1
	c-36.5,42.8-92.7,75.2-108.1,83.6c3.7,8.8,7.9,17.3,12.6,25.5c17.9-7.9,35.3-16.7,52.1-26.7c-6.4,44.1,8.3,88.8,39.5,120.7
	c23.8,14.3,50.1,24.7,78.2,30.6c-57.1-23.5-97.1-69.5-100.4-124.2c-0.9-14.3,1-28.6,5.2-42.3c13.6-10.2,26-21.2,40.7-32.8
	c-4.2,41.8,7.1,87.2,35.1,126.8c27.5,38.9,66,64.8,106.5,75.6c13.5-1.8,26.6-4.7,39.3-8.5c-43.8-6.8-84.1-27.8-114.9-59.5
	c-43.1-44.7-57.4-102-43.4-151.3c7.1-5.1,15-10.1,23.7-15.3c8.1-5.1,17.3-8.4,26.6-10c-10.6,45.5-3.8,96.6,22.8,142.3
	c24.8,42.8,62.5,72.9,103.8,87.3c9.4-3.6,18.5-7.8,27.4-12.5c-45.8-10.5-88.4-40.7-114.6-86.4c-24.4-42.4-29.6-89.7-18.4-131.1
	c15.4,1.5,30.6,5.3,49.5,2.3c-9.5,39.3-1.5,84.5,26.2,125.9c21.1,31.6,50.6,56.4,83.7,73.1c5.9-4.1,11.7-8.5,17.2-13.1
	c-26.6-11.6-50.4-28.7-70-50.2c-39.1-43.4-51.1-95.9-37.7-141c0.5-0.2,1-0.4,1.5-0.6c28.7-11.3,45.3-56.7,81-48.7
	c3.2,0.9,6.5,1.8,9.6,3.2C356.2,244.7,342.4,315.3,373.4,378z"/>
</svg>
